<svg xmlns="http://www.w3.org/2000/svg" viewBox="0 0 141.83 238.28"><defs><style>.cls-1{fill:#fff;}</style></defs><title>LBlogo white</title><g id="Layer_2" data-name="Layer 2"><g id="Layer_1-2" data-name="Layer 1"><path class="cls-1" d="M141.8,3.72a9.33,9.33,0,0,0-.67-2.12,1.18,1.18,0,0,0-1.45-.83,5.77,5.77,0,0,0-1.53.41,5.57,5.57,0,0,0-.93.58l-.61.48c-1.46,1-2.93,2.05-4.37,3.13s-2.62,2.06-3.9,3.12c-.55.46-1.09.92-1.62,1.39l-1-.28A26.54,26.54,0,0,0,123,9.13c-1-.13-1.89-.23-2.84-.3a43.64,43.64,0,0,0-5.83.1,87.41,87.41,0,0,0-14.86,2.85c-1.8.46-3.59.93-5.39,1.38-.69.18-1.37.37-2.07.52L82.9,15.75c-.71.16-1.43.28-2.14.41-1.57.28-3.16.53-4.74.74q-4.24.55-8.52.71a54.51,54.51,0,0,1-8.38-.38c-.84-.12-1.66-.26-2.49-.43s-1.67-.41-2.49-.66c-1.62-.48-3.2-1.1-4.77-1.74s-2.9-1.36-4.31-2.12c-.89-.47-1.78-.94-2.66-1.43L38.49,8.63C37.38,8,36.27,7.35,35.14,6.75,33.57,5.93,32,5.13,30.38,4.4S27.19,3,25.55,2.47A42.82,42.82,0,0,0,15.66.38C13.74.19,11.8.13,9.86.06,8.69,0,7.52,0,6.34,0,5.77.05,5.2.08,4.63.1s-1.28,0-1.92,0L2.34,0A2.85,2.85,0,0,0,1.12.3a2.3,2.3,0,0,0-1,1.42,2,2,0,0,0,0,1.14,2.07,2.07,0,0,0,.55,1L.8,4a2.14,2.14,0,0,0,1,.55,5.16,5.16,0,0,0,.77.21c.47.11,1,.14,1.43.21s.65.07,1,.08l1.45.08c.51,0,1,0,1.51.08a9.24,9.24,0,0,1,1.17.34,6.05,6.05,0,0,1,.55.32,7.57,7.57,0,0,1,.88.91,11.28,11.28,0,0,1,1.06,1.81,23.49,23.49,0,0,1,1,3.52c.28,1.31.53,2.62.73,3.94.32,2.53.5,5.07.89,7.58.22,1.39.44,2.78.65,4.17l.87,5.55c.16,1,.3,2.06.5,3.08q1.09,5.7,2.48,11.34c.93,3.75,2,7.46,3.18,11.14q1.92,6,4.06,12l3.7,10.36c.54,1.53,1.09,3.06,1.62,4.59l3.42,10c.37,1.09.74,2.18,1.12,3.27.2.59.36,1.2.53,1.8.78,2.65,1.55,5.29,2.33,7.93.37,1.26.77,2.52,1.08,3.8.62,2.55,1.24,5.11,1.87,7.66.17.71.34,1.42.52,2.13.1.45.18.91.28,1.37.15.75.3,1.5.44,2.26.28,1.47.52,3,.73,4.45.26,2.06.47,4.14.57,6.23l-.36,6.55c0,.67,0,1.35-.05,2l-.12,5.43c0,2.17-.12,4.34-.13,6.51q0,5-.07,9.88c0,2.46.06,4.91.09,7.36,0,1,0,2.07.06,3.1-1.48,7-2.66,14.11-3.69,21.21-.09.61-.15,1.21-.22,1.82-.14,1.24-.27,2.49-.41,3.73q-.6,5.55-1.19,11.1c-.35,3.27-.69,6.53-1,9.8-.45,4.33-.77,8.67-1.12,13h0c.44-4.26.84-8.52,1.35-12.77.38-3.11.76-6.23,1.12-9.34q1-8.4,2-16.81c.95-6.44,2-12.87,3.28-19.26,0,.79,0,1.58.07,2.37l0,1.19c0,.77.13,1.54.2,2.31h0a1.6,1.6,0,0,0,1.17,1.54,1.58,1.58,0,0,0,1.22-.16,1.56,1.56,0,0,0,.57-.57,1.51,1.51,0,0,0,.22-.8c.08-.89.19-1.76.19-2.65s0-1.77,0-2.64c0-1.12,0-2.23,0-3.34l-.18-9.15c0-1,0-2.07-.05-3.11q1.41-5.43,3-10.83c.18-.59.39-1.18.59-1.77l1.45-4.36,3.54-10.67c.34-1,.68-2,1-3,.11-.34.21-.68.34-1,.71-1.83,1.41-3.66,2.12-5.5l5.43-14.08Q68,105.74,71.4,97.69c.25-.59.47-1.19.75-1.76.35-.74.71-1.47,1.06-2.21Q75.6,88.8,78,83.86c.73-1.52,1.45-3,2.23-4.53l4.9-9.26c.84-1.59,1.67-3.17,2.54-4.74l5.1-9.17c.31-.55.6-1.1.93-1.64L95.78,51l2.9-4.76c.39-.66.77-1.34,1.2-2l5.29-7.85c.38-.56.75-1.12,1.15-1.67L109.08,31l3.28-4.46c1.28-1.64,2.57-3.28,3.91-4.88s3-3.43,4.49-5.08c.83-.88,1.66-1.74,2.52-2.59a24.45,24.45,0,0,1,3.61,1.07,17.1,17.1,0,0,1,2.47,1.38c.37.31.72.65,1.09,1l.45.42a3.23,3.23,0,0,0,1.27.7,2.33,2.33,0,0,0,1.23,0,2.85,2.85,0,0,0,1.14-.66,7.9,7.9,0,0,0,.61-.79c.09-.12.17-.31.26-.44.54-.86,1.15-1.68,1.69-2.53l1-1.61c.57-.88,1.1-1.79,1.6-2.71.34-.61.62-1.26.91-1.9a21.3,21.3,0,0,0,.92-2.28,5.49,5.49,0,0,0,.18-.78c0-.13,0-.26.05-.39A1.84,1.84,0,0,0,141.8,3.72ZM116.43,20.57c-1.16,1.38-2.28,2.79-3.4,4.21-.47.6-1,1.2-1.4,1.81L106,34.32c-.38.51-.73,1-1.09,1.56l-3,4.45L99.46,43.9c-.39.57-.73,1.17-1.08,1.76L93.26,54.1c-.3.49-.57,1-.85,1.51l-2.49,4.47-2.61,4.68c-.32.57-.64,1.14-1,1.71l-4.21,8-2.31,4.37c-.24.46-.5.92-.72,1.39q-3.72,7.71-7.45,15.41c-.23.5-.43,1-.65,1.53q-.9,2.14-1.82,4.29-2.13,5-4.25,10c-.3.72-.61,1.44-.92,2.16-.21.49-.39,1-.58,1.5l-3.66,9.5q-1.6,4.14-3.19,8.28c-.12.32-.24.63-.34,1-.37,1.1-.74,2.2-1.1,3.3l-5.64,17c-.25.73-.44,1.48-.65,2.22s-.51,1.78-.76,2.67c-.38,1.35-.75,2.69-1.11,4,0-2.83-.1-5.66-.13-8.49,0-3.42-.09-6.84-.13-10.26,0-1.93,0-3.86.09-5.79.06-3.27.13-6.53.19-9.79,0-.43,0-.86.08-1.29l.36-4.21c.37-4.23.71-8.46,1.09-12.69q1.38-8.27,2.67-16.53c.18-1.2.37-2.41.55-3.61.22-1.49.49-3,.76-4.45C53.79,78.92,55.3,72,56.79,65h.28a2.67,2.67,0,1,0-.32,0c-1.72,7-3.65,14-5.38,21-.34,1.37-.67,2.75-.95,4.13l-.78,4q-1.08,5.5-2.11,11c-.25,1.32-.49,2.64-.73,3.95-.09.47-.19.94-.24,1.42l-2,17.44c0,.49-.06,1-.09,1.49,0,.32,0,.65-.05,1,0-.29-.08-.59-.11-.88-.23-1.72-.51-3.43-.81-5.14-.16-.89-.32-1.78-.51-2.66l-2.1-9.47c-.12-.56-.27-1.11-.41-1.66-.43-1.58-.85-3.17-1.27-4.75l-1.41-5.23c-.17-.64-.32-1.3-.52-1.93-.88-2.84-1.77-5.69-2.66-8.53-.66-2.11-1.29-4.22-2-6.32q-2.49-7.71-5-15.41c-.35-1.09-.68-2.18-1-3.27-1-3.26-1.93-6.52-2.81-9.8a191.58,191.58,0,0,1-4.14-20.27L19,29.05c-.27-2.27-.56-4.54-.8-6.81-.16-1.46-.24-2.93-.35-4.4-.13-1.67-.31-3.33-.57-5-.2-1.34-.45-2.67-.76-4a14.55,14.55,0,0,0-1.71-4.16A12.8,12.8,0,0,0,13.52,3a5.79,5.79,0,0,0-.66-.65c.64,0,1.29.06,1.93.09,1,.05,1.94.14,2.91.26a45,45,0,0,1,5.61,1.14,48.81,48.81,0,0,1,5.36,1.91c1.6.69,3.17,1.45,4.72,2.24.73.37,1.45.74,2.15,1.14l4.55,2.56c1.73,1,3.46,1.93,5.22,2.85,1.52.8,3.08,1.49,4.67,2.15a45.87,45.87,0,0,0,5.29,1.83,39.23,39.23,0,0,0,5.06.95c1.93.24,3.88.37,5.82.44s3.6,0,5.39-.06q3-.12,5.94-.41c2.27-.22,4.54-.49,6.79-.88l5.15-.89,4-.69.9-.19,2.61-.54c4.34-.89,8.67-1.83,13.06-2.45,1.91-.23,3.83-.36,5.76-.41a40.2,40.2,0,0,1,5.8.31l1,.16C120.39,16,118.38,18.27,116.43,20.57ZM139,3.82a4.61,4.61,0,0,1-.16.64c0,.14-.09.28-.14.41-.42.88-.91,1.71-1.37,2.56a33.53,33.53,0,0,1-1.85,2.88c-.24.35-.5.68-.75,1l-.56.76-.4.47c-.18.21-.34.43-.53.62l-.15.14-.06-.06a10.51,10.51,0,0,0-2-1.54,17.07,17.07,0,0,0-2.47-1.2c-.33-.14-.67-.27-1-.38.86-.72,1.75-1.43,2.64-2.12s1.93-1.41,2.92-2.08c.64-.43,1.27-.86,2-1.23l1.7-.93.51-.28a10.19,10.19,0,0,1,1-.43,2.21,2.21,0,0,1,.48-.15H139l.06.34s0,.06,0,.09A2.37,2.37,0,0,1,139,3.82Z"/></g></g></svg>